<?xml version="1.0" encoding="utf-8"?>
<!-- Svg Vector Icons : http://www.onlinewebfonts.com/icon -->
<!DOCTYPE svg PUBLIC "-//W3C//DTD SVG 1.1//EN" "http://www.w3.org/Graphics/SVG/1.1/DTD/svg11.dtd">
<svg version="1.1" xmlns="http://www.w3.org/2000/svg" xmlns:xlink="http://www.w3.org/1999/xlink" x="0px" y="0px" viewBox="0 0 1000 1000" enable-background="new 0 0 1000 1000" xml:space="preserve">
<metadata> Svg Vector Icons : http://www.onlinewebfonts.com/icon </metadata>
<g><path d="M166.6,544.2c0-14.3-12-23.3-40.2-32.7c-40.2-13.6-67.7-32.3-67.7-68.8c0-33.4,23.3-59.4,63.5-66.9v-35.7h36.9v33.1c24.8,0.7,41.7,6.4,54.9,12.4L202.7,428c-9.4-4.5-27.1-13.1-54.1-13.1c-24.4,0-32.3,10.9-32.3,21.4c0,12.1,13.1,20.3,45.5,31.9c44.7,15.8,62.4,36.5,62.4,70.7c0,33.4-23.3,62-66.5,69.2v38.7h-37.3v-35.7c-25.2-1.1-49.6-8.3-63.9-16.2l11.3-44c15.8,8.6,38,16.5,62.4,16.5C151.9,567.4,166.6,558.8,166.6,544.2L166.6,544.2z M549,745.7l-26.7,59.7c-6.4,14.6-11.2,29-16.2,41.4h-0.7c-4.9-13.1-9-25.9-15.8-40.9l-26.3-60.2h-61.3l61.3,106.8h-45.1v26.7h58.6v24h-58.6v26.7h58.6V990h53.8v-60.2h59v-26.7h-59v-24h59v-26.7h-44.7l64.3-106.8L549,745.7L549,745.7z M591.5,212.3l-100.3-0.8v-0.8c9.1-7.8,15.2-17.2,18.6-26.6c2.7-8.6,3.9-17.6,3.6-26.6l46.6,0.4l0.3-39.1l-51.5-0.4c-2.2-9.4-3.6-18.1-3.5-27.9c0.1-18.4,8.5-35.2,35.2-35c13.9,0.1,24.4,2.8,31.9,7l9.4-43.1c-8.2-4.6-23.7-9.2-44-9.4c-50.7-0.5-85.2,30.5-85.6,77.4c-0.1,10.5,1,21.1,2.8,30.5l-30.1-0.3l-0.3,39.1l36.9,0.3c0.7,4.9,0.6,9.8,0.6,15C462,197.7,440,218.9,420,227l-0.2,30.5l171.3,1.4L591.5,212.3L591.5,212.3z M311.8,109.8C228.4,150.6,159.6,216.7,115.6,298c8.1-1,16.3-1.7,24.7-1.7c16.7,0,32.8,2.3,48.3,6.2c31.6-48.6,74.1-89.5,124-119.3c-2.7-13.2-4.1-26.8-4-40.7C308.6,131.3,309.9,120.5,311.8,109.8L311.8,109.8z M831.3,316.2c14-3.2,28.4-4.9,43.3-4.9c9.9,0,19.6,1,29.1,2.4c-43.4-88.5-115.5-160.5-204.1-203.7c2.1,11.7,3.3,23.6,3.1,35.9c-0.1,12.8-1.5,25.3-4,37.5C753.3,215.7,799,261.6,831.3,316.2L831.3,316.2z M311.8,833c-58.4-35-106.7-85.3-139.2-145.4c-10.6,1.8-21.3,2.9-32.4,2.9c-13.8,0-27.4-1.5-40.4-4.2c42.5,96.4,118.2,175,212.7,220.9c-2.6-12.7-4-25.9-4-39.3C308.5,856,309.8,844.4,311.8,833L311.8,833z M831.3,700.5c-32.2,54.4-77.6,100-131.8,132.5c2,11.4,3.3,22.9,3.3,34.8c0,13.5-1.4,26.6-4,39.4c89-43.2,161.3-115.4,204.9-204.2c-9.5,1.4-19.2,2.4-29.1,2.4C859.7,705.5,845.3,703.7,831.3,700.5L831.3,700.5z M889.5,427.2c16.5,0,32.3,4.9,42.1,9l10.5-42.8c-13.5-6-33.8-11.3-56.4-11.3c-35.7,0-65.8,14.3-86.8,38.7c-12,13.5-21.4,30.8-25.9,51.1l-25.2,0v26.7h21.1c0,3.7-0.4,7.5-0.4,11.3c0,2.3,0,4.5,0,6.4h-20.7v26.7h24.4c3.4,19.9,10.9,36,21.1,48.9c21,27.8,54.5,42.8,91.7,42.8c24,0,45.8-7.1,58.6-14.3l-9-41.7c-7.9,4.1-25.6,9.8-42.8,9.8c-18.8,0-36.5-5.7-48.5-19.2c-5.6-6.4-9.8-15-12.4-26.3h94.3v-26.7h-99.6c0-1.9,0-3.8,0-6c0-4.1,0-7.9,0.4-11.6h99.2v-26.7h-93.6c2.6-9.8,6.4-18.4,12-24.4C855.2,433.5,871.8,427.2,889.5,427.2z"/></g>
</svg>